<mxfile host="app.diagrams.net" modified="2021-10-13T11:08:42.445Z" agent="5.0 (Windows NT 10.0; Win64; x64) AppleWebKit/537.36 (KHTML, like Gecko) Chrome/92.0.4515.159 Safari/537.36" etag="wwzRs2xSX0D8WRDKc4JA" version="15.5.0" type="github">
  <diagram id="kOadGJXyRHLk9qOf6jqh" name="Page-1">
    <mxGraphModel dx="1202" dy="513" grid="1" gridSize="10" guides="1" tooltips="1" connect="1" arrows="1" fold="1" page="1" pageScale="1" pageWidth="850" pageHeight="1100" math="0" shadow="0">
      <root>
        <mxCell id="0" />
        <mxCell id="1" parent="0" />
        <mxCell id="AwMmoYNrA3vF9enMe_v1-21" value="" style="rounded=0;whiteSpace=wrap;html=1;" vertex="1" parent="1">
          <mxGeometry x="175" y="80" width="290" height="100" as="geometry" />
        </mxCell>
        <mxCell id="AwMmoYNrA3vF9enMe_v1-63" value="" style="group" vertex="1" connectable="0" parent="1">
          <mxGeometry x="175" y="80" width="420" height="100" as="geometry" />
        </mxCell>
        <mxCell id="AwMmoYNrA3vF9enMe_v1-40" value="" style="group" vertex="1" connectable="0" parent="AwMmoYNrA3vF9enMe_v1-63">
          <mxGeometry x="30" y="30" width="390" height="60" as="geometry" />
        </mxCell>
        <mxCell id="AwMmoYNrA3vF9enMe_v1-16" value="Data Lineage" style="rounded=1;whiteSpace=wrap;html=1;" vertex="1" parent="AwMmoYNrA3vF9enMe_v1-40">
          <mxGeometry width="100" height="20" as="geometry" />
        </mxCell>
        <mxCell id="AwMmoYNrA3vF9enMe_v1-22" value="step" style="rounded=1;whiteSpace=wrap;html=1;" vertex="1" parent="AwMmoYNrA3vF9enMe_v1-40">
          <mxGeometry x="10" y="30" width="40" height="20" as="geometry" />
        </mxCell>
        <mxCell id="AwMmoYNrA3vF9enMe_v1-23" value="step" style="rounded=1;whiteSpace=wrap;html=1;" vertex="1" parent="AwMmoYNrA3vF9enMe_v1-40">
          <mxGeometry x="60" y="30" width="40" height="20" as="geometry" />
        </mxCell>
        <mxCell id="AwMmoYNrA3vF9enMe_v1-24" style="edgeStyle=orthogonalEdgeStyle;rounded=0;orthogonalLoop=1;jettySize=auto;html=1;entryX=0;entryY=0.5;entryDx=0;entryDy=0;" edge="1" parent="AwMmoYNrA3vF9enMe_v1-40" source="AwMmoYNrA3vF9enMe_v1-22" target="AwMmoYNrA3vF9enMe_v1-23">
          <mxGeometry x="-10" as="geometry" />
        </mxCell>
        <mxCell id="AwMmoYNrA3vF9enMe_v1-27" value="" style="endArrow=classic;html=1;rounded=0;edgeStyle=orthogonalEdgeStyle;exitX=0;exitY=0.5;exitDx=0;exitDy=0;entryX=0;entryY=0.5;entryDx=0;entryDy=0;" edge="1" parent="AwMmoYNrA3vF9enMe_v1-40" source="AwMmoYNrA3vF9enMe_v1-16" target="AwMmoYNrA3vF9enMe_v1-22">
          <mxGeometry x="-10" width="50" height="50" as="geometry">
            <mxPoint x="220" y="90" as="sourcePoint" />
            <mxPoint x="270" y="40" as="targetPoint" />
            <Array as="points">
              <mxPoint y="40" />
            </Array>
          </mxGeometry>
        </mxCell>
        <mxCell id="AwMmoYNrA3vF9enMe_v1-41" value="" style="group" vertex="1" connectable="0" parent="AwMmoYNrA3vF9enMe_v1-63">
          <mxGeometry x="175" y="30" width="100" height="50" as="geometry" />
        </mxCell>
        <mxCell id="AwMmoYNrA3vF9enMe_v1-42" value="Data Lineage" style="rounded=1;whiteSpace=wrap;html=1;" vertex="1" parent="AwMmoYNrA3vF9enMe_v1-41">
          <mxGeometry width="100" height="20" as="geometry" />
        </mxCell>
        <mxCell id="AwMmoYNrA3vF9enMe_v1-43" value="step" style="rounded=1;whiteSpace=wrap;html=1;" vertex="1" parent="AwMmoYNrA3vF9enMe_v1-41">
          <mxGeometry x="10" y="30" width="40" height="20" as="geometry" />
        </mxCell>
        <mxCell id="AwMmoYNrA3vF9enMe_v1-44" value="step" style="rounded=1;whiteSpace=wrap;html=1;" vertex="1" parent="AwMmoYNrA3vF9enMe_v1-41">
          <mxGeometry x="60" y="30" width="40" height="20" as="geometry" />
        </mxCell>
        <mxCell id="AwMmoYNrA3vF9enMe_v1-45" style="edgeStyle=orthogonalEdgeStyle;rounded=0;orthogonalLoop=1;jettySize=auto;html=1;entryX=0;entryY=0.5;entryDx=0;entryDy=0;" edge="1" parent="AwMmoYNrA3vF9enMe_v1-41" source="AwMmoYNrA3vF9enMe_v1-43" target="AwMmoYNrA3vF9enMe_v1-44">
          <mxGeometry x="-10" as="geometry" />
        </mxCell>
        <mxCell id="AwMmoYNrA3vF9enMe_v1-46" value="" style="endArrow=classic;html=1;rounded=0;edgeStyle=orthogonalEdgeStyle;exitX=0;exitY=0.5;exitDx=0;exitDy=0;entryX=0;entryY=0.5;entryDx=0;entryDy=0;" edge="1" parent="AwMmoYNrA3vF9enMe_v1-41" source="AwMmoYNrA3vF9enMe_v1-42" target="AwMmoYNrA3vF9enMe_v1-43">
          <mxGeometry x="-10" width="50" height="50" as="geometry">
            <mxPoint x="220" y="90" as="sourcePoint" />
            <mxPoint x="270" y="40" as="targetPoint" />
            <Array as="points">
              <mxPoint y="40" />
            </Array>
          </mxGeometry>
        </mxCell>
        <mxCell id="AwMmoYNrA3vF9enMe_v1-47" style="edgeStyle=orthogonalEdgeStyle;rounded=0;orthogonalLoop=1;jettySize=auto;html=1;" edge="1" parent="AwMmoYNrA3vF9enMe_v1-63" source="AwMmoYNrA3vF9enMe_v1-16">
          <mxGeometry relative="1" as="geometry">
            <mxPoint x="175" y="40" as="targetPoint" />
          </mxGeometry>
        </mxCell>
        <mxCell id="AwMmoYNrA3vF9enMe_v1-28" value="Data Pipeline" style="text;html=1;strokeColor=none;fillColor=none;align=center;verticalAlign=middle;whiteSpace=wrap;rounded=0;" vertex="1" parent="AwMmoYNrA3vF9enMe_v1-63">
          <mxGeometry width="90" height="30" as="geometry" />
        </mxCell>
        <mxCell id="AwMmoYNrA3vF9enMe_v1-64" value="" style="group" vertex="1" connectable="0" parent="1">
          <mxGeometry x="330" y="190" width="420" height="100" as="geometry" />
        </mxCell>
        <mxCell id="AwMmoYNrA3vF9enMe_v1-65" value="" style="rounded=0;whiteSpace=wrap;html=1;" vertex="1" parent="AwMmoYNrA3vF9enMe_v1-64">
          <mxGeometry x="5" width="290" height="100" as="geometry" />
        </mxCell>
        <mxCell id="AwMmoYNrA3vF9enMe_v1-66" value="" style="group" vertex="1" connectable="0" parent="AwMmoYNrA3vF9enMe_v1-64">
          <mxGeometry x="30" y="30" width="390" height="60" as="geometry" />
        </mxCell>
        <mxCell id="AwMmoYNrA3vF9enMe_v1-67" value="Data Lineage" style="rounded=1;whiteSpace=wrap;html=1;" vertex="1" parent="AwMmoYNrA3vF9enMe_v1-66">
          <mxGeometry width="100" height="20" as="geometry" />
        </mxCell>
        <mxCell id="AwMmoYNrA3vF9enMe_v1-68" value="step" style="rounded=1;whiteSpace=wrap;html=1;" vertex="1" parent="AwMmoYNrA3vF9enMe_v1-66">
          <mxGeometry x="10" y="30" width="40" height="20" as="geometry" />
        </mxCell>
        <mxCell id="AwMmoYNrA3vF9enMe_v1-69" value="step" style="rounded=1;whiteSpace=wrap;html=1;" vertex="1" parent="AwMmoYNrA3vF9enMe_v1-66">
          <mxGeometry x="60" y="30" width="40" height="20" as="geometry" />
        </mxCell>
        <mxCell id="AwMmoYNrA3vF9enMe_v1-70" style="edgeStyle=orthogonalEdgeStyle;rounded=0;orthogonalLoop=1;jettySize=auto;html=1;entryX=0;entryY=0.5;entryDx=0;entryDy=0;" edge="1" parent="AwMmoYNrA3vF9enMe_v1-66" source="AwMmoYNrA3vF9enMe_v1-68" target="AwMmoYNrA3vF9enMe_v1-69">
          <mxGeometry x="-10" as="geometry" />
        </mxCell>
        <mxCell id="AwMmoYNrA3vF9enMe_v1-71" value="" style="endArrow=classic;html=1;rounded=0;edgeStyle=orthogonalEdgeStyle;exitX=0;exitY=0.5;exitDx=0;exitDy=0;entryX=0;entryY=0.5;entryDx=0;entryDy=0;" edge="1" parent="AwMmoYNrA3vF9enMe_v1-66" source="AwMmoYNrA3vF9enMe_v1-67" target="AwMmoYNrA3vF9enMe_v1-68">
          <mxGeometry x="-10" width="50" height="50" as="geometry">
            <mxPoint x="220" y="90" as="sourcePoint" />
            <mxPoint x="270" y="40" as="targetPoint" />
            <Array as="points">
              <mxPoint y="40" />
            </Array>
          </mxGeometry>
        </mxCell>
        <mxCell id="AwMmoYNrA3vF9enMe_v1-82" value="" style="endArrow=none;dashed=1;html=1;dashPattern=1 3;strokeWidth=2;rounded=0;edgeStyle=orthogonalEdgeStyle;" edge="1" parent="AwMmoYNrA3vF9enMe_v1-66">
          <mxGeometry width="50" height="50" relative="1" as="geometry">
            <mxPoint x="120" y="90" as="sourcePoint" />
            <mxPoint x="120" y="-180" as="targetPoint" />
          </mxGeometry>
        </mxCell>
        <mxCell id="AwMmoYNrA3vF9enMe_v1-72" value="" style="group" vertex="1" connectable="0" parent="AwMmoYNrA3vF9enMe_v1-64">
          <mxGeometry x="175" y="30" width="100" height="50" as="geometry" />
        </mxCell>
        <mxCell id="AwMmoYNrA3vF9enMe_v1-73" value="Data Lineage" style="rounded=1;whiteSpace=wrap;html=1;" vertex="1" parent="AwMmoYNrA3vF9enMe_v1-72">
          <mxGeometry width="100" height="20" as="geometry" />
        </mxCell>
        <mxCell id="AwMmoYNrA3vF9enMe_v1-74" value="step" style="rounded=1;whiteSpace=wrap;html=1;" vertex="1" parent="AwMmoYNrA3vF9enMe_v1-72">
          <mxGeometry x="10" y="30" width="40" height="20" as="geometry" />
        </mxCell>
        <mxCell id="AwMmoYNrA3vF9enMe_v1-75" value="step" style="rounded=1;whiteSpace=wrap;html=1;" vertex="1" parent="AwMmoYNrA3vF9enMe_v1-72">
          <mxGeometry x="60" y="30" width="40" height="20" as="geometry" />
        </mxCell>
        <mxCell id="AwMmoYNrA3vF9enMe_v1-76" style="edgeStyle=orthogonalEdgeStyle;rounded=0;orthogonalLoop=1;jettySize=auto;html=1;entryX=0;entryY=0.5;entryDx=0;entryDy=0;" edge="1" parent="AwMmoYNrA3vF9enMe_v1-72" source="AwMmoYNrA3vF9enMe_v1-74" target="AwMmoYNrA3vF9enMe_v1-75">
          <mxGeometry x="-10" as="geometry" />
        </mxCell>
        <mxCell id="AwMmoYNrA3vF9enMe_v1-77" value="" style="endArrow=classic;html=1;rounded=0;edgeStyle=orthogonalEdgeStyle;exitX=0;exitY=0.5;exitDx=0;exitDy=0;entryX=0;entryY=0.5;entryDx=0;entryDy=0;" edge="1" parent="AwMmoYNrA3vF9enMe_v1-72" source="AwMmoYNrA3vF9enMe_v1-73" target="AwMmoYNrA3vF9enMe_v1-74">
          <mxGeometry x="-10" width="50" height="50" as="geometry">
            <mxPoint x="220" y="90" as="sourcePoint" />
            <mxPoint x="270" y="40" as="targetPoint" />
            <Array as="points">
              <mxPoint y="40" />
            </Array>
          </mxGeometry>
        </mxCell>
        <mxCell id="AwMmoYNrA3vF9enMe_v1-78" style="edgeStyle=orthogonalEdgeStyle;rounded=0;orthogonalLoop=1;jettySize=auto;html=1;" edge="1" parent="AwMmoYNrA3vF9enMe_v1-64" source="AwMmoYNrA3vF9enMe_v1-67">
          <mxGeometry relative="1" as="geometry">
            <mxPoint x="175" y="40" as="targetPoint" />
          </mxGeometry>
        </mxCell>
        <mxCell id="AwMmoYNrA3vF9enMe_v1-79" value="Data Pipeline" style="text;html=1;strokeColor=none;fillColor=none;align=center;verticalAlign=middle;whiteSpace=wrap;rounded=0;" vertex="1" parent="AwMmoYNrA3vF9enMe_v1-64">
          <mxGeometry width="90" height="30" as="geometry" />
        </mxCell>
        <mxCell id="AwMmoYNrA3vF9enMe_v1-83" value="" style="endArrow=none;dashed=1;html=1;dashPattern=1 3;strokeWidth=2;rounded=0;edgeStyle=orthogonalEdgeStyle;" edge="1" parent="AwMmoYNrA3vF9enMe_v1-64">
          <mxGeometry width="50" height="50" relative="1" as="geometry">
            <mxPoint x="310" y="120" as="sourcePoint" />
            <mxPoint x="310" y="-150" as="targetPoint" />
          </mxGeometry>
        </mxCell>
        <mxCell id="AwMmoYNrA3vF9enMe_v1-80" value="" style="endArrow=none;dashed=1;html=1;dashPattern=1 3;strokeWidth=2;rounded=0;edgeStyle=orthogonalEdgeStyle;" edge="1" parent="1">
          <mxGeometry width="50" height="50" relative="1" as="geometry">
            <mxPoint x="160" y="310" as="sourcePoint" />
            <mxPoint x="160" y="40" as="targetPoint" />
          </mxGeometry>
        </mxCell>
        <mxCell id="AwMmoYNrA3vF9enMe_v1-81" value="" style="endArrow=none;dashed=1;html=1;dashPattern=1 3;strokeWidth=2;rounded=0;edgeStyle=orthogonalEdgeStyle;" edge="1" parent="1">
          <mxGeometry width="50" height="50" relative="1" as="geometry">
            <mxPoint x="319.5" y="310" as="sourcePoint" />
            <mxPoint x="319.5" y="40" as="targetPoint" />
          </mxGeometry>
        </mxCell>
        <mxCell id="AwMmoYNrA3vF9enMe_v1-84" value="Stage 1" style="shape=ext;double=1;rounded=0;whiteSpace=wrap;html=1;" vertex="1" parent="1">
          <mxGeometry x="160" y="30" width="160" height="30" as="geometry" />
        </mxCell>
        <mxCell id="AwMmoYNrA3vF9enMe_v1-85" value="Stage 2" style="shape=ext;double=1;rounded=0;whiteSpace=wrap;html=1;" vertex="1" parent="1">
          <mxGeometry x="320" y="30" width="160" height="30" as="geometry" />
        </mxCell>
        <mxCell id="AwMmoYNrA3vF9enMe_v1-86" value="Stage 3" style="shape=ext;double=1;rounded=0;whiteSpace=wrap;html=1;" vertex="1" parent="1">
          <mxGeometry x="481" y="30" width="160" height="30" as="geometry" />
        </mxCell>
        <mxCell id="AwMmoYNrA3vF9enMe_v1-87" value="Pipeline" style="swimlane;fontStyle=0;childLayout=stackLayout;horizontal=1;startSize=26;fillColor=none;horizontalStack=0;resizeParent=1;resizeParentMax=0;resizeLast=0;collapsible=1;marginBottom=0;" vertex="1" parent="1">
          <mxGeometry x="40" y="590" width="140" height="104" as="geometry" />
        </mxCell>
        <mxCell id="AwMmoYNrA3vF9enMe_v1-88" value="+ pid: pipeline id" style="text;strokeColor=none;fillColor=none;align=left;verticalAlign=top;spacingLeft=4;spacingRight=4;overflow=hidden;rotatable=0;points=[[0,0.5],[1,0.5]];portConstraint=eastwest;" vertex="1" parent="AwMmoYNrA3vF9enMe_v1-87">
          <mxGeometry y="26" width="140" height="26" as="geometry" />
        </mxCell>
        <mxCell id="AwMmoYNrA3vF9enMe_v1-89" value="+ pdes: description" style="text;strokeColor=none;fillColor=none;align=left;verticalAlign=top;spacingLeft=4;spacingRight=4;overflow=hidden;rotatable=0;points=[[0,0.5],[1,0.5]];portConstraint=eastwest;" vertex="1" parent="AwMmoYNrA3vF9enMe_v1-87">
          <mxGeometry y="52" width="140" height="26" as="geometry" />
        </mxCell>
        <mxCell id="AwMmoYNrA3vF9enMe_v1-90" value="+ other: attribute info" style="text;strokeColor=none;fillColor=none;align=left;verticalAlign=top;spacingLeft=4;spacingRight=4;overflow=hidden;rotatable=0;points=[[0,0.5],[1,0.5]];portConstraint=eastwest;" vertex="1" parent="AwMmoYNrA3vF9enMe_v1-87">
          <mxGeometry y="78" width="140" height="26" as="geometry" />
        </mxCell>
        <mxCell id="AwMmoYNrA3vF9enMe_v1-91" value="Stage" style="swimlane;fontStyle=0;childLayout=stackLayout;horizontal=1;startSize=26;fillColor=none;horizontalStack=0;resizeParent=1;resizeParentMax=0;resizeLast=0;collapsible=1;marginBottom=0;" vertex="1" parent="1">
          <mxGeometry x="270" y="590" width="140" height="104" as="geometry" />
        </mxCell>
        <mxCell id="AwMmoYNrA3vF9enMe_v1-92" value="+ sid: stage id" style="text;strokeColor=none;fillColor=none;align=left;verticalAlign=top;spacingLeft=4;spacingRight=4;overflow=hidden;rotatable=0;points=[[0,0.5],[1,0.5]];portConstraint=eastwest;" vertex="1" parent="AwMmoYNrA3vF9enMe_v1-91">
          <mxGeometry y="26" width="140" height="26" as="geometry" />
        </mxCell>
        <mxCell id="AwMmoYNrA3vF9enMe_v1-93" value="+ sdes: description" style="text;strokeColor=none;fillColor=none;align=left;verticalAlign=top;spacingLeft=4;spacingRight=4;overflow=hidden;rotatable=0;points=[[0,0.5],[1,0.5]];portConstraint=eastwest;" vertex="1" parent="AwMmoYNrA3vF9enMe_v1-91">
          <mxGeometry y="52" width="140" height="26" as="geometry" />
        </mxCell>
        <mxCell id="AwMmoYNrA3vF9enMe_v1-94" value="+ other: atttribte info" style="text;strokeColor=none;fillColor=none;align=left;verticalAlign=top;spacingLeft=4;spacingRight=4;overflow=hidden;rotatable=0;points=[[0,0.5],[1,0.5]];portConstraint=eastwest;" vertex="1" parent="AwMmoYNrA3vF9enMe_v1-91">
          <mxGeometry y="78" width="140" height="26" as="geometry" />
        </mxCell>
        <mxCell id="AwMmoYNrA3vF9enMe_v1-95" value="Lineage" style="swimlane;fontStyle=0;childLayout=stackLayout;horizontal=1;startSize=26;fillColor=none;horizontalStack=0;resizeParent=1;resizeParentMax=0;resizeLast=0;collapsible=1;marginBottom=0;" vertex="1" parent="1">
          <mxGeometry x="120" y="730" width="160" height="152" as="geometry" />
        </mxCell>
        <mxCell id="AwMmoYNrA3vF9enMe_v1-127" style="edgeStyle=orthogonalEdgeStyle;rounded=0;orthogonalLoop=1;jettySize=auto;html=1;entryX=0;entryY=0.5;entryDx=0;entryDy=0;" edge="1" parent="AwMmoYNrA3vF9enMe_v1-95" source="AwMmoYNrA3vF9enMe_v1-96" target="AwMmoYNrA3vF9enMe_v1-124">
          <mxGeometry relative="1" as="geometry" />
        </mxCell>
        <mxCell id="AwMmoYNrA3vF9enMe_v1-96" value="+ lid: lineage id" style="text;strokeColor=none;fillColor=none;align=left;verticalAlign=top;spacingLeft=4;spacingRight=4;overflow=hidden;rotatable=0;points=[[0,0.5],[1,0.5]];portConstraint=eastwest;" vertex="1" parent="AwMmoYNrA3vF9enMe_v1-95">
          <mxGeometry y="26" width="160" height="26" as="geometry" />
        </mxCell>
        <mxCell id="AwMmoYNrA3vF9enMe_v1-97" value="+ lname: name lineage" style="text;strokeColor=none;fillColor=none;align=left;verticalAlign=top;spacingLeft=4;spacingRight=4;overflow=hidden;rotatable=0;points=[[0,0.5],[1,0.5]];portConstraint=eastwest;" vertex="1" parent="AwMmoYNrA3vF9enMe_v1-95">
          <mxGeometry y="52" width="160" height="26" as="geometry" />
        </mxCell>
        <mxCell id="AwMmoYNrA3vF9enMe_v1-98" value="+ pid: pipeline id" style="text;strokeColor=none;fillColor=none;align=left;verticalAlign=top;spacingLeft=4;spacingRight=4;overflow=hidden;rotatable=0;points=[[0,0.5],[1,0.5]];portConstraint=eastwest;" vertex="1" parent="AwMmoYNrA3vF9enMe_v1-95">
          <mxGeometry y="78" width="160" height="22" as="geometry" />
        </mxCell>
        <mxCell id="AwMmoYNrA3vF9enMe_v1-112" value="+ sid: stage id" style="text;strokeColor=none;fillColor=none;align=left;verticalAlign=top;spacingLeft=4;spacingRight=4;overflow=hidden;rotatable=0;points=[[0,0.5],[1,0.5]];portConstraint=eastwest;" vertex="1" parent="AwMmoYNrA3vF9enMe_v1-95">
          <mxGeometry y="100" width="160" height="26" as="geometry" />
        </mxCell>
        <mxCell id="AwMmoYNrA3vF9enMe_v1-124" value="+ lpid: lid dependency" style="text;strokeColor=none;fillColor=none;align=left;verticalAlign=top;spacingLeft=4;spacingRight=4;overflow=hidden;rotatable=0;points=[[0,0.5],[1,0.5]];portConstraint=eastwest;" vertex="1" parent="AwMmoYNrA3vF9enMe_v1-95">
          <mxGeometry y="126" width="160" height="26" as="geometry" />
        </mxCell>
        <mxCell id="AwMmoYNrA3vF9enMe_v1-99" value="Step" style="swimlane;fontStyle=0;childLayout=stackLayout;horizontal=1;startSize=26;fillColor=none;horizontalStack=0;resizeParent=1;resizeParentMax=0;resizeLast=0;collapsible=1;marginBottom=0;" vertex="1" parent="1">
          <mxGeometry x="350" y="747" width="190" height="104" as="geometry" />
        </mxCell>
        <mxCell id="AwMmoYNrA3vF9enMe_v1-100" value="+ slid: step id" style="text;strokeColor=none;fillColor=none;align=left;verticalAlign=top;spacingLeft=4;spacingRight=4;overflow=hidden;rotatable=0;points=[[0,0.5],[1,0.5]];portConstraint=eastwest;" vertex="1" parent="AwMmoYNrA3vF9enMe_v1-99">
          <mxGeometry y="26" width="190" height="26" as="geometry" />
        </mxCell>
        <mxCell id="AwMmoYNrA3vF9enMe_v1-101" value="+ lid: lineage id" style="text;strokeColor=none;fillColor=none;align=left;verticalAlign=top;spacingLeft=4;spacingRight=4;overflow=hidden;rotatable=0;points=[[0,0.5],[1,0.5]];portConstraint=eastwest;" vertex="1" parent="AwMmoYNrA3vF9enMe_v1-99">
          <mxGeometry y="52" width="190" height="26" as="geometry" />
        </mxCell>
        <mxCell id="AwMmoYNrA3vF9enMe_v1-102" value="+ tableid: table on data dictionary" style="text;strokeColor=none;fillColor=none;align=left;verticalAlign=top;spacingLeft=4;spacingRight=4;overflow=hidden;rotatable=0;points=[[0,0.5],[1,0.5]];portConstraint=eastwest;" vertex="1" parent="AwMmoYNrA3vF9enMe_v1-99">
          <mxGeometry y="78" width="190" height="26" as="geometry" />
        </mxCell>
        <mxCell id="AwMmoYNrA3vF9enMe_v1-104" value="Logging detail" style="swimlane;fontStyle=0;childLayout=stackLayout;horizontal=1;startSize=26;fillColor=none;horizontalStack=0;resizeParent=1;resizeParentMax=0;resizeLast=0;collapsible=1;marginBottom=0;" vertex="1" parent="1">
          <mxGeometry x="375" y="920" width="140" height="104" as="geometry" />
        </mxCell>
        <mxCell id="AwMmoYNrA3vF9enMe_v1-105" value="+ dlogid: log detail id" style="text;strokeColor=none;fillColor=none;align=left;verticalAlign=top;spacingLeft=4;spacingRight=4;overflow=hidden;rotatable=0;points=[[0,0.5],[1,0.5]];portConstraint=eastwest;" vertex="1" parent="AwMmoYNrA3vF9enMe_v1-104">
          <mxGeometry y="26" width="140" height="26" as="geometry" />
        </mxCell>
        <mxCell id="AwMmoYNrA3vF9enMe_v1-106" value="+ logid: log id" style="text;strokeColor=none;fillColor=none;align=left;verticalAlign=top;spacingLeft=4;spacingRight=4;overflow=hidden;rotatable=0;points=[[0,0.5],[1,0.5]];portConstraint=eastwest;" vertex="1" parent="AwMmoYNrA3vF9enMe_v1-104">
          <mxGeometry y="52" width="140" height="26" as="geometry" />
        </mxCell>
        <mxCell id="AwMmoYNrA3vF9enMe_v1-107" value="+ slid: step id" style="text;strokeColor=none;fillColor=none;align=left;verticalAlign=top;spacingLeft=4;spacingRight=4;overflow=hidden;rotatable=0;points=[[0,0.5],[1,0.5]];portConstraint=eastwest;" vertex="1" parent="AwMmoYNrA3vF9enMe_v1-104">
          <mxGeometry y="78" width="140" height="26" as="geometry" />
        </mxCell>
        <mxCell id="AwMmoYNrA3vF9enMe_v1-108" value="Logging" style="swimlane;fontStyle=0;childLayout=stackLayout;horizontal=1;startSize=26;fillColor=none;horizontalStack=0;resizeParent=1;resizeParentMax=0;resizeLast=0;collapsible=1;marginBottom=0;" vertex="1" parent="1">
          <mxGeometry x="150" y="920" width="140" height="104" as="geometry" />
        </mxCell>
        <mxCell id="AwMmoYNrA3vF9enMe_v1-109" value="+ logid: log id" style="text;strokeColor=none;fillColor=none;align=left;verticalAlign=top;spacingLeft=4;spacingRight=4;overflow=hidden;rotatable=0;points=[[0,0.5],[1,0.5]];portConstraint=eastwest;" vertex="1" parent="AwMmoYNrA3vF9enMe_v1-108">
          <mxGeometry y="26" width="140" height="26" as="geometry" />
        </mxCell>
        <mxCell id="AwMmoYNrA3vF9enMe_v1-110" value="+ lid: lineage id" style="text;strokeColor=none;fillColor=none;align=left;verticalAlign=top;spacingLeft=4;spacingRight=4;overflow=hidden;rotatable=0;points=[[0,0.5],[1,0.5]];portConstraint=eastwest;" vertex="1" parent="AwMmoYNrA3vF9enMe_v1-108">
          <mxGeometry y="52" width="140" height="26" as="geometry" />
        </mxCell>
        <mxCell id="AwMmoYNrA3vF9enMe_v1-111" value="+ other: atttributes" style="text;strokeColor=none;fillColor=none;align=left;verticalAlign=top;spacingLeft=4;spacingRight=4;overflow=hidden;rotatable=0;points=[[0,0.5],[1,0.5]];portConstraint=eastwest;" vertex="1" parent="AwMmoYNrA3vF9enMe_v1-108">
          <mxGeometry y="78" width="140" height="26" as="geometry" />
        </mxCell>
        <mxCell id="AwMmoYNrA3vF9enMe_v1-114" value="data dictionary" style="swimlane;fontStyle=0;childLayout=stackLayout;horizontal=1;startSize=26;fillColor=none;horizontalStack=0;resizeParent=1;resizeParentMax=0;resizeLast=0;collapsible=1;marginBottom=0;" vertex="1" parent="1">
          <mxGeometry x="465" y="590" width="140" height="104" as="geometry" />
        </mxCell>
        <mxCell id="AwMmoYNrA3vF9enMe_v1-115" value="+ id: data dictionary id" style="text;strokeColor=none;fillColor=none;align=left;verticalAlign=top;spacingLeft=4;spacingRight=4;overflow=hidden;rotatable=0;points=[[0,0.5],[1,0.5]];portConstraint=eastwest;" vertex="1" parent="AwMmoYNrA3vF9enMe_v1-114">
          <mxGeometry y="26" width="140" height="26" as="geometry" />
        </mxCell>
        <mxCell id="AwMmoYNrA3vF9enMe_v1-116" value="+ tableid: id of table" style="text;strokeColor=none;fillColor=none;align=left;verticalAlign=top;spacingLeft=4;spacingRight=4;overflow=hidden;rotatable=0;points=[[0,0.5],[1,0.5]];portConstraint=eastwest;" vertex="1" parent="AwMmoYNrA3vF9enMe_v1-114">
          <mxGeometry y="52" width="140" height="26" as="geometry" />
        </mxCell>
        <mxCell id="AwMmoYNrA3vF9enMe_v1-117" value="+ des: description" style="text;strokeColor=none;fillColor=none;align=left;verticalAlign=top;spacingLeft=4;spacingRight=4;overflow=hidden;rotatable=0;points=[[0,0.5],[1,0.5]];portConstraint=eastwest;" vertex="1" parent="AwMmoYNrA3vF9enMe_v1-114">
          <mxGeometry y="78" width="140" height="26" as="geometry" />
        </mxCell>
        <mxCell id="AwMmoYNrA3vF9enMe_v1-122" style="edgeStyle=orthogonalEdgeStyle;rounded=0;orthogonalLoop=1;jettySize=auto;html=1;entryX=0;entryY=0.821;entryDx=0;entryDy=0;entryPerimeter=0;exitX=1;exitY=0.5;exitDx=0;exitDy=0;" edge="1" parent="1" source="AwMmoYNrA3vF9enMe_v1-97" target="AwMmoYNrA3vF9enMe_v1-100">
          <mxGeometry relative="1" as="geometry">
            <mxPoint x="270" y="799" as="sourcePoint" />
          </mxGeometry>
        </mxCell>
        <mxCell id="AwMmoYNrA3vF9enMe_v1-123" style="edgeStyle=orthogonalEdgeStyle;rounded=0;orthogonalLoop=1;jettySize=auto;html=1;entryX=1;entryY=0.5;entryDx=0;entryDy=0;" edge="1" parent="1" source="AwMmoYNrA3vF9enMe_v1-117" target="AwMmoYNrA3vF9enMe_v1-101">
          <mxGeometry relative="1" as="geometry">
            <Array as="points">
              <mxPoint x="560" y="812" />
            </Array>
          </mxGeometry>
        </mxCell>
        <mxCell id="AwMmoYNrA3vF9enMe_v1-125" style="edgeStyle=orthogonalEdgeStyle;rounded=0;orthogonalLoop=1;jettySize=auto;html=1;" edge="1" parent="1" source="AwMmoYNrA3vF9enMe_v1-89">
          <mxGeometry relative="1" as="geometry">
            <mxPoint x="200" y="729" as="targetPoint" />
            <Array as="points">
              <mxPoint x="200" y="655" />
              <mxPoint x="200" y="729" />
            </Array>
          </mxGeometry>
        </mxCell>
        <mxCell id="AwMmoYNrA3vF9enMe_v1-126" style="edgeStyle=orthogonalEdgeStyle;rounded=0;orthogonalLoop=1;jettySize=auto;html=1;" edge="1" parent="1" source="AwMmoYNrA3vF9enMe_v1-92">
          <mxGeometry relative="1" as="geometry">
            <mxPoint x="230" y="730" as="targetPoint" />
          </mxGeometry>
        </mxCell>
        <mxCell id="AwMmoYNrA3vF9enMe_v1-128" style="edgeStyle=orthogonalEdgeStyle;rounded=0;orthogonalLoop=1;jettySize=auto;html=1;entryX=0.75;entryY=0;entryDx=0;entryDy=0;exitX=1;exitY=0.5;exitDx=0;exitDy=0;" edge="1" parent="1" source="AwMmoYNrA3vF9enMe_v1-98" target="AwMmoYNrA3vF9enMe_v1-108">
          <mxGeometry relative="1" as="geometry">
            <Array as="points">
              <mxPoint x="300" y="819" />
              <mxPoint x="300" y="900" />
              <mxPoint x="255" y="900" />
            </Array>
          </mxGeometry>
        </mxCell>
        <mxCell id="AwMmoYNrA3vF9enMe_v1-129" style="edgeStyle=orthogonalEdgeStyle;rounded=0;orthogonalLoop=1;jettySize=auto;html=1;" edge="1" parent="1" source="AwMmoYNrA3vF9enMe_v1-101" target="AwMmoYNrA3vF9enMe_v1-104">
          <mxGeometry relative="1" as="geometry">
            <Array as="points">
              <mxPoint x="330" y="812" />
              <mxPoint x="330" y="900" />
              <mxPoint x="410" y="900" />
            </Array>
          </mxGeometry>
        </mxCell>
        <mxCell id="AwMmoYNrA3vF9enMe_v1-130" style="edgeStyle=orthogonalEdgeStyle;rounded=0;orthogonalLoop=1;jettySize=auto;html=1;entryX=0;entryY=0.5;entryDx=0;entryDy=0;" edge="1" parent="1" source="AwMmoYNrA3vF9enMe_v1-110" target="AwMmoYNrA3vF9enMe_v1-106">
          <mxGeometry relative="1" as="geometry" />
        </mxCell>
      </root>
    </mxGraphModel>
  </diagram>
</mxfile>
